<mxfile host="app.diagrams.net" agent="Mozilla/5.0 (Windows NT 10.0; Win64; x64) AppleWebKit/537.36 (KHTML, like Gecko) Chrome/129.0.0.0 Safari/537.36" version="24.8.6">
  <diagram name="Trang-1" id="bA5Tt_nkfXXIvtKyDoZD">
    <mxGraphModel dx="1177" dy="809" grid="1" gridSize="10" guides="1" tooltips="1" connect="1" arrows="1" fold="1" page="1" pageScale="1" pageWidth="827" pageHeight="1169" math="0" shadow="0">
      <root>
        <mxCell id="0" />
        <mxCell id="1" parent="0" />
        <mxCell id="Bb5-tc-B9TqI9CxFzcxF-1" value="Star" style="text;html=1;align=center;verticalAlign=middle;resizable=0;points=[];autosize=1;strokeColor=none;fillColor=none;" parent="1" vertex="1">
          <mxGeometry x="425" y="48" width="50" height="30" as="geometry" />
        </mxCell>
        <mxCell id="Bb5-tc-B9TqI9CxFzcxF-2" value="" style="edgeStyle=none;orthogonalLoop=1;jettySize=auto;html=1;rounded=0;" parent="1" edge="1">
          <mxGeometry width="100" relative="1" as="geometry">
            <mxPoint x="449.5" y="78" as="sourcePoint" />
            <mxPoint x="450" y="150" as="targetPoint" />
            <Array as="points" />
          </mxGeometry>
        </mxCell>
        <mxCell id="Bb5-tc-B9TqI9CxFzcxF-3" value="Nhap a" style="text;html=1;align=center;verticalAlign=middle;resizable=0;points=[];autosize=1;strokeColor=none;fillColor=none;" parent="1" vertex="1">
          <mxGeometry x="420" y="158" width="60" height="30" as="geometry" />
        </mxCell>
        <mxCell id="Bb5-tc-B9TqI9CxFzcxF-4" value="" style="edgeStyle=none;orthogonalLoop=1;jettySize=auto;html=1;rounded=0;" parent="1" edge="1">
          <mxGeometry width="100" relative="1" as="geometry">
            <mxPoint x="449.5" y="180" as="sourcePoint" />
            <mxPoint x="449.5" y="240" as="targetPoint" />
            <Array as="points" />
          </mxGeometry>
        </mxCell>
        <mxCell id="Bb5-tc-B9TqI9CxFzcxF-5" value="neu a%2=0" style="text;html=1;align=center;verticalAlign=middle;resizable=0;points=[];autosize=1;strokeColor=none;fillColor=none;" parent="1" vertex="1">
          <mxGeometry x="410" y="260" width="80" height="30" as="geometry" />
        </mxCell>
        <mxCell id="Bb5-tc-B9TqI9CxFzcxF-6" value="" style="edgeStyle=none;orthogonalLoop=1;jettySize=auto;html=1;rounded=0;" parent="1" edge="1">
          <mxGeometry width="100" relative="1" as="geometry">
            <mxPoint x="480" y="290" as="sourcePoint" />
            <mxPoint x="500" y="340" as="targetPoint" />
            <Array as="points" />
          </mxGeometry>
        </mxCell>
        <mxCell id="Bb5-tc-B9TqI9CxFzcxF-8" value="dung" style="edgeLabel;html=1;align=center;verticalAlign=middle;resizable=0;points=[];" parent="Bb5-tc-B9TqI9CxFzcxF-6" vertex="1" connectable="0">
          <mxGeometry x="-0.2253" y="1" relative="1" as="geometry">
            <mxPoint as="offset" />
          </mxGeometry>
        </mxCell>
        <mxCell id="Bb5-tc-B9TqI9CxFzcxF-7" value="" style="edgeStyle=none;orthogonalLoop=1;jettySize=auto;html=1;rounded=0;" parent="1" edge="1">
          <mxGeometry width="100" relative="1" as="geometry">
            <mxPoint x="425" y="290" as="sourcePoint" />
            <mxPoint x="410" y="340" as="targetPoint" />
            <Array as="points" />
          </mxGeometry>
        </mxCell>
        <mxCell id="Bb5-tc-B9TqI9CxFzcxF-9" value="sai" style="edgeLabel;html=1;align=center;verticalAlign=middle;resizable=0;points=[];" parent="Bb5-tc-B9TqI9CxFzcxF-7" vertex="1" connectable="0">
          <mxGeometry x="-0.1853" y="-1" relative="1" as="geometry">
            <mxPoint as="offset" />
          </mxGeometry>
        </mxCell>
        <mxCell id="HJi2O0Jae9c4fYqAot86-4" value="" style="edgeStyle=orthogonalEdgeStyle;rounded=0;orthogonalLoop=1;jettySize=auto;html=1;" edge="1" parent="1" source="Bb5-tc-B9TqI9CxFzcxF-10" target="HJi2O0Jae9c4fYqAot86-3">
          <mxGeometry relative="1" as="geometry" />
        </mxCell>
        <mxCell id="Bb5-tc-B9TqI9CxFzcxF-10" value="in: a la so chan" style="text;html=1;align=center;verticalAlign=middle;resizable=0;points=[];autosize=1;strokeColor=none;fillColor=none;" parent="1" vertex="1">
          <mxGeometry x="450" y="338" width="100" height="30" as="geometry" />
        </mxCell>
        <mxCell id="HJi2O0Jae9c4fYqAot86-2" value="" style="edgeStyle=orthogonalEdgeStyle;rounded=0;orthogonalLoop=1;jettySize=auto;html=1;" edge="1" parent="1" source="Bb5-tc-B9TqI9CxFzcxF-11" target="HJi2O0Jae9c4fYqAot86-1">
          <mxGeometry relative="1" as="geometry" />
        </mxCell>
        <mxCell id="Bb5-tc-B9TqI9CxFzcxF-11" value="a la so le" style="text;html=1;align=center;verticalAlign=middle;resizable=0;points=[];autosize=1;strokeColor=none;fillColor=none;" parent="1" vertex="1">
          <mxGeometry x="365" y="338" width="70" height="30" as="geometry" />
        </mxCell>
        <mxCell id="HJi2O0Jae9c4fYqAot86-1" value="end" style="text;html=1;align=center;verticalAlign=middle;resizable=0;points=[];autosize=1;strokeColor=none;fillColor=none;" vertex="1" parent="1">
          <mxGeometry x="380" y="448" width="40" height="30" as="geometry" />
        </mxCell>
        <mxCell id="HJi2O0Jae9c4fYqAot86-3" value="end" style="text;html=1;align=center;verticalAlign=middle;resizable=0;points=[];autosize=1;strokeColor=none;fillColor=none;" vertex="1" parent="1">
          <mxGeometry x="480" y="448" width="40" height="30" as="geometry" />
        </mxCell>
      </root>
    </mxGraphModel>
  </diagram>
</mxfile>
